<svg width="24" height="24" viewBox="0 0 24 24" fill="none" xmlns="http://www.w3.org/2000/svg">
<path d="M13.25 7H10.75C10.3358 7 10 7.33579 10 7.75V9.25C10 9.66421 10.3358 10 10.75 10H13.25C13.6642 10 14 9.66421 14 9.25V7.75C14 7.33579 13.6642 7 13.25 7Z" stroke="#D9D9D9"/>
<path d="M10.25 14H7.75C7.33579 14 7 14.3358 7 14.75V16.25C7 16.6642 7.33579 17 7.75 17H10.25C10.6642 17 11 16.6642 11 16.25V14.75C11 14.3358 10.6642 14 10.25 14Z" stroke="#D9D9D9"/>
<path d="M16.25 14H13.75C13.3358 14 13 14.3358 13 14.75V16.25C13 16.6642 13.3358 17 13.75 17H16.25C16.6642 17 17 16.6642 17 16.25V14.75C17 14.3358 16.6642 14 16.25 14Z" stroke="#D9D9D9"/>
<path d="M12 10.5V12M9 13.5V12.9C9 12.402 9.44667 12 10 12H14C14.5533 12 15 12.4467 15 13V13.5" stroke="#D9D9D9" stroke-linecap="round"/>
</svg>
